<svg id="visual" viewBox="0 0 450 900" width="450" height="900" xmlns="http://www.w3.org/2000/svg" xmlns:xlink="http://www.w3.org/1999/xlink" version="1.1"><rect x="0" y="0" width="450" height="900" fill="#001220"></rect><path d="M0 137L10.7 154.7C21.3 172.3 42.7 207.7 64.2 224C85.7 240.3 107.3 237.7 128.8 226.3C150.3 215 171.7 195 193 175C214.3 155 235.7 135 257 141.2C278.3 147.3 299.7 179.7 321.2 197.5C342.7 215.3 364.3 218.7 385.8 212.3C407.3 206 428.7 190 439.3 182L450 174L450 901L439.3 901C428.7 901 407.3 901 385.8 901C364.3 901 342.7 901 321.2 901C299.7 901 278.3 901 257 901C235.7 901 214.3 901 193 901C171.7 901 150.3 901 128.8 901C107.3 901 85.7 901 64.2 901C42.7 901 21.3 901 10.7 901L0 901Z" fill="#f1f2f6"></path><path d="M0 423L10.7 413C21.3 403 42.7 383 64.2 377C85.7 371 107.3 379 128.8 375.8C150.3 372.7 171.7 358.3 193 348C214.3 337.7 235.7 331.3 257 323.2C278.3 315 299.7 305 321.2 299C342.7 293 364.3 291 385.8 312.8C407.3 334.7 428.7 380.3 439.3 403.2L450 426L450 901L439.3 901C428.7 901 407.3 901 385.8 901C364.3 901 342.7 901 321.2 901C299.7 901 278.3 901 257 901C235.7 901 214.3 901 193 901C171.7 901 150.3 901 128.8 901C107.3 901 85.7 901 64.2 901C42.7 901 21.3 901 10.7 901L0 901Z" fill="#e6e9ef"></path><path d="M0 504L10.7 518.3C21.3 532.7 42.7 561.3 64.2 578.2C85.7 595 107.3 600 128.8 591.5C150.3 583 171.7 561 193 549.2C214.3 537.3 235.7 535.7 257 539.2C278.3 542.7 299.7 551.3 321.2 557.7C342.7 564 364.3 568 385.8 557.8C407.3 547.7 428.7 523.3 439.3 511.2L450 499L450 901L439.3 901C428.7 901 407.3 901 385.8 901C364.3 901 342.7 901 321.2 901C299.7 901 278.3 901 257 901C235.7 901 214.3 901 193 901C171.7 901 150.3 901 128.8 901C107.3 901 85.7 901 64.2 901C42.7 901 21.3 901 10.7 901L0 901Z" fill="#dadfe7"></path><path d="M0 772L10.7 751.7C21.3 731.3 42.7 690.7 64.2 678.2C85.7 665.7 107.3 681.3 128.8 704.5C150.3 727.7 171.7 758.3 193 762.3C214.3 766.3 235.7 743.7 257 723.7C278.3 703.7 299.7 686.3 321.2 685.8C342.7 685.3 364.3 701.7 385.8 706.3C407.3 711 428.7 704 439.3 700.5L450 697L450 901L439.3 901C428.7 901 407.3 901 385.8 901C364.3 901 342.7 901 321.2 901C299.7 901 278.3 901 257 901C235.7 901 214.3 901 193 901C171.7 901 150.3 901 128.8 901C107.3 901 85.7 901 64.2 901C42.7 901 21.3 901 10.7 901L0 901Z" fill="#ced6e0"></path></svg>